<svg width="86" height="86" viewBox="0 0 86 86" fill="none" xmlns="http://www.w3.org/2000/svg">
<path d="M10.4141 7.39062C9.81608 7.39062 9.23153 7.56794 8.73433 7.90016C8.23713 8.23238 7.84961 8.70458 7.62077 9.25704C7.39193 9.8095 7.33206 10.4174 7.44872 11.0039C7.56538 11.5904 7.85333 12.1291 8.27617 12.552C8.69901 12.9748 9.23773 13.2627 9.82422 13.3794C10.4107 13.4961 11.0186 13.4362 11.5711 13.2074C12.1235 12.9785 12.5957 12.591 12.928 12.0938C13.2602 11.5966 13.4375 11.012 13.4375 10.4141C13.4366 9.61247 13.1178 8.84396 12.551 8.27715C11.9842 7.71034 11.2157 7.39151 10.4141 7.39062ZM10.4141 11.4219C10.2147 11.4219 10.0199 11.3628 9.85415 11.252C9.68842 11.1413 9.55924 10.9839 9.48296 10.7997C9.40669 10.6156 9.38673 10.4129 9.42561 10.2174C9.4645 10.0219 9.56049 9.84237 9.70143 9.70143C9.84238 9.56048 10.022 9.4645 10.2174 9.42561C10.4129 9.38673 10.6156 9.40668 10.7997 9.48296C10.9839 9.55924 11.1413 9.68842 11.252 9.85415C11.3628 10.0199 11.4219 10.2147 11.4219 10.4141C11.4219 10.6813 11.3157 10.9377 11.1267 11.1267C10.9377 11.3157 10.6814 11.4219 10.4141 11.4219Z" fill="#C9DC00"/>
<path d="M31.9141 7.39062C31.3161 7.39062 30.7315 7.56794 30.2343 7.90016C29.7371 8.23238 29.3496 8.70458 29.1208 9.25704C28.8919 9.8095 28.8321 10.4174 28.9487 11.0039C29.0654 11.5904 29.3533 12.1291 29.7762 12.552C30.199 12.9748 30.7377 13.2627 31.3242 13.3794C31.9107 13.4961 32.5186 13.4362 33.0711 13.2074C33.6235 12.9785 34.0957 12.591 34.428 12.0938C34.7602 11.5966 34.9375 11.012 34.9375 10.4141C34.9366 9.61247 34.6178 8.84396 34.051 8.27715C33.4842 7.71034 32.7157 7.39151 31.9141 7.39062ZM31.9141 11.4219C31.7147 11.4219 31.5199 11.3628 31.3542 11.252C31.1884 11.1413 31.0592 10.9839 30.983 10.7997C30.9067 10.6156 30.8867 10.4129 30.9256 10.2174C30.9645 10.0219 31.0605 9.84237 31.2014 9.70143C31.3424 9.56048 31.5219 9.4645 31.7174 9.42561C31.9129 9.38673 32.1156 9.40668 32.2997 9.48296C32.4839 9.55924 32.6413 9.68842 32.752 9.85415C32.8628 10.0199 32.9219 10.2147 32.9219 10.4141C32.9219 10.6813 32.8157 10.9377 32.6267 11.1267C32.4377 11.3157 32.1814 11.4219 31.9141 11.4219Z" fill="#C9DC00"/>
<path d="M21.1641 7.39062C20.5661 7.39062 19.9815 7.56794 19.4843 7.90016C18.9871 8.23238 18.5996 8.70458 18.3708 9.25704C18.1419 9.8095 18.0821 10.4174 18.1987 11.0039C18.3154 11.5904 18.6033 12.1291 19.0262 12.552C19.449 12.9748 19.9877 13.2627 20.5742 13.3794C21.1607 13.4961 21.7686 13.4362 22.3211 13.2074C22.8735 12.9785 23.3457 12.591 23.678 12.0938C24.0102 11.5966 24.1875 11.012 24.1875 10.4141C24.1866 9.61247 23.8678 8.84396 23.301 8.27715C22.7342 7.71034 21.9657 7.39151 21.1641 7.39062ZM21.1641 11.4219C20.9647 11.4219 20.7699 11.3628 20.6042 11.252C20.4384 11.1413 20.3092 10.9839 20.233 10.7997C20.1567 10.6156 20.1367 10.4129 20.1756 10.2174C20.2145 10.0219 20.3105 9.84237 20.4514 9.70143C20.5924 9.56048 20.772 9.4645 20.9674 9.42561C21.1629 9.38673 21.3656 9.40668 21.5497 9.48296C21.7339 9.55924 21.8913 9.68842 22.002 9.85415C22.1128 10.0199 22.1719 10.2147 22.1719 10.4141C22.1719 10.6813 22.0657 10.9377 21.8767 11.1267C21.6877 11.3157 21.4314 11.4219 21.1641 11.4219Z" fill="#C9DC00"/>
<path d="M74.9141 7.39062H64.1641C63.3622 7.39062 62.5932 7.70916 62.0262 8.27617C61.4592 8.84317 61.1406 9.61219 61.1406 10.4141C61.1406 11.2159 61.4592 11.9849 62.0262 12.552C62.5932 13.119 63.3622 13.4375 64.1641 13.4375H74.9141C75.7159 13.4375 76.485 13.119 77.052 12.552C77.619 11.9849 77.9375 11.2159 77.9375 10.4141C77.9375 9.61219 77.619 8.84317 77.052 8.27617C76.485 7.70916 75.7159 7.39062 74.9141 7.39062ZM74.9141 11.4219H64.1641C63.8968 11.4219 63.6404 11.3157 63.4514 11.1267C63.2624 10.9377 63.1562 10.6813 63.1562 10.4141C63.1562 10.1468 63.2624 9.89043 63.4514 9.70143C63.6404 9.51243 63.8968 9.40625 64.1641 9.40625H74.9141C75.1814 9.40625 75.4377 9.51243 75.6267 9.70143C75.8157 9.89043 75.9219 10.1468 75.9219 10.4141C75.9219 10.6813 75.8157 10.9377 75.6267 11.1267C75.4377 11.3157 75.1814 11.4219 74.9141 11.4219Z" fill="#C9DC00"/>
<path d="M76.9297 0H9.07031C6.66553 0.00266753 4.36001 0.959143 2.65958 2.65958C0.959144 4.36001 0.00266753 6.66553 0 9.07031V67.5234C0.00266753 69.9282 0.959144 72.2337 2.65958 73.9342C4.36001 75.6346 6.66553 76.5911 9.07031 76.5937H21.0008L23.9228 79.5157C24.5145 80.1111 25.3151 80.4524 26.1544 80.4669C26.9937 80.4815 27.8056 80.1682 28.4176 79.5937L29.7385 78.3608C31.7862 79.5582 33.9873 80.4714 36.2812 81.0751L36.3431 82.8771C36.3696 83.7161 36.7223 84.5117 37.3261 85.0948C37.93 85.678 38.7374 86.0027 39.5768 86H46.4266C47.2659 86.0025 48.0731 85.6777 48.6768 85.0946C49.2805 84.5115 49.6331 83.716 49.6596 82.8771L49.7188 81.0745C52.0145 80.4732 54.2177 79.5621 56.2675 78.3661L57.583 79.5937C58.1949 80.1681 59.0067 80.4814 59.8458 80.4669C60.685 80.4525 61.4854 80.1115 62.0772 79.5164L64.9992 76.5937H76.9297C79.3345 76.5911 81.64 75.6346 83.3404 73.9342C85.0409 72.2337 85.9973 69.9282 86 67.5234V9.07031C85.9973 6.66553 85.0409 4.36001 83.3404 2.65958C81.64 0.959143 79.3345 0.00266753 76.9297 0ZM65.4937 73.2491L60.6515 78.0913C60.4285 78.3158 60.1267 78.4444 59.8103 78.4497C59.494 78.4549 59.188 78.3365 58.9577 78.1196L57.0859 76.3727C56.9236 76.2214 56.7159 76.1278 56.4951 76.1066C56.2742 76.0853 56.0525 76.1375 55.8644 76.2551C53.598 77.6691 51.1125 78.697 48.5094 79.2967C48.2933 79.3468 48.0999 79.4668 47.959 79.6381C47.818 79.8094 47.7376 80.0224 47.73 80.244L47.6413 82.8072C47.6315 83.1228 47.4992 83.4222 47.2725 83.642C47.0457 83.8617 46.7423 83.9845 46.4266 83.9844H39.5768C39.2603 83.9856 38.9559 83.8632 38.7283 83.6434C38.5007 83.4235 38.3678 83.1235 38.358 82.8072L38.27 80.2447C38.2624 80.0229 38.1818 79.8099 38.0408 79.6386C37.8997 79.4673 37.7061 79.3474 37.49 79.2974C34.8885 78.695 32.4051 77.6649 30.141 76.2491C29.9528 76.1316 29.731 76.0795 29.5102 76.1008C29.2893 76.1222 29.0817 76.2159 28.9195 76.3673L27.0423 78.1196C26.812 78.3366 26.5059 78.455 26.1895 78.4496C25.8731 78.4442 25.5713 78.3154 25.3485 78.0907L20.507 73.2491C20.2824 73.0262 20.1537 72.7245 20.1483 72.4081C20.1429 72.0917 20.2612 71.7858 20.4781 71.5553L22.225 69.6835C22.3763 69.5212 22.4698 69.3136 22.4911 69.0927C22.5123 68.8719 22.4601 68.6502 22.3425 68.462C20.9289 66.1957 19.9011 63.7105 19.301 61.1077C19.2509 60.8915 19.131 60.6979 18.9597 60.5569C18.7884 60.4158 18.5754 60.3352 18.3536 60.3276L15.7891 60.2396C15.4728 60.2298 15.1728 60.097 14.9529 59.8694C14.7331 59.6417 14.6107 59.3373 14.6119 59.0208V52.1744C14.6107 51.858 14.7331 51.5536 14.9529 51.3259C15.1728 51.0983 15.4728 50.9655 15.7891 50.9557L18.3516 50.867C18.5733 50.8594 18.7862 50.7789 18.9575 50.638C19.1288 50.4971 19.2488 50.3036 19.2989 50.0876C19.9019 47.4859 20.9324 45.0022 22.3486 42.738C22.4659 42.5498 22.5179 42.3282 22.4965 42.1075C22.4752 41.8868 22.3816 41.6793 22.2303 41.5172L20.4781 39.6406C20.2612 39.4102 20.1429 39.1042 20.1483 38.7878C20.1537 38.4715 20.2824 38.1697 20.507 37.9468L25.3485 33.1053C25.5713 32.8805 25.8731 32.7517 26.1895 32.7463C26.5059 32.7409 26.812 32.8594 27.0423 33.0764L28.9141 34.8233C29.0768 34.9741 29.2847 35.067 29.5055 35.0876C29.7263 35.1083 29.9478 35.0555 30.1356 34.9375C32.4022 33.5244 34.8876 32.4975 37.4906 31.8986C37.7068 31.8486 37.9004 31.7286 38.0415 31.5573C38.1825 31.3861 38.2631 31.173 38.2707 30.9513L38.3587 28.3881C38.3685 28.0719 38.5012 27.772 38.7287 27.5521C38.9562 27.3323 39.2605 27.2099 39.5768 27.2109H46.4266C46.743 27.2097 47.0474 27.3321 47.2751 27.5519C47.5027 27.7718 47.6355 28.0717 47.6453 28.3881L47.734 30.9499C47.7416 31.1716 47.8221 31.3846 47.963 31.5558C48.1039 31.7271 48.2974 31.8471 48.5134 31.8973C51.1138 32.5005 53.5962 33.5305 55.8597 34.9456C56.0478 35.0629 56.2694 35.1149 56.4901 35.0935C56.7109 35.0721 56.9184 34.9786 57.0805 34.8273L58.9577 33.0757C59.1881 32.8589 59.494 32.7406 59.8103 32.7459C60.1267 32.7511 60.4284 32.8796 60.6515 33.1039L65.4937 37.9461C65.7182 38.1692 65.8468 38.4712 65.8521 38.7876C65.8574 39.1041 65.7389 39.4102 65.5219 39.6406L63.775 41.5125C63.6237 41.6747 63.5302 41.8824 63.5089 42.1032C63.4877 42.3241 63.5399 42.5458 63.6575 42.7339C65.0714 45.0001 66.0993 47.4854 66.6991 50.0883C66.7492 50.3043 66.8692 50.4978 67.0405 50.6387C67.2118 50.7796 67.4247 50.8601 67.6464 50.8676L70.2096 50.9563C70.5259 50.9661 70.8259 51.099 71.0457 51.3266C71.2656 51.5542 71.3879 51.8587 71.3867 52.1751V59.0215C71.3879 59.338 71.2656 59.6424 71.0457 59.87C70.8259 60.0977 70.5259 60.2305 70.2096 60.2403L67.6471 60.3283C67.4253 60.3359 67.2123 60.4165 67.041 60.5575C66.8697 60.6986 66.7497 60.8922 66.6997 61.1084C66.0973 63.7097 65.0674 66.1931 63.6521 68.4573C63.5346 68.6455 63.4825 68.8673 63.5039 69.0881C63.5252 69.309 63.6189 69.5166 63.7703 69.6788L65.5219 71.556C65.7385 71.7864 65.8567 72.0921 65.8515 72.4083C65.8462 72.7245 65.7178 73.0261 65.4937 73.2491ZM83.9844 67.5234C83.9822 69.3938 83.2383 71.1869 81.9157 72.5095C80.5932 73.832 78.8 74.576 76.9297 74.5781H66.998C67.5565 73.9822 67.8672 73.1961 67.8672 72.3794C67.8672 71.5627 67.5565 70.7766 66.998 70.1807L65.7651 68.8591C66.9626 66.8112 67.8758 64.6099 68.4795 62.3157L70.2815 62.2539C71.1204 62.2273 71.9159 61.8748 72.499 61.2711C73.0821 60.6674 73.4069 59.8602 73.4044 59.0208V52.1744C73.4069 51.3351 73.0821 50.5279 72.499 49.9242C71.9159 49.3205 71.1204 48.968 70.2815 48.9414L68.4788 48.8789C67.8772 46.5823 66.9653 44.3785 65.7685 42.3281L66.996 41.0126C67.5704 40.4007 67.8837 39.589 67.8693 38.7498C67.8549 37.9107 67.5139 37.1102 66.9187 36.5184L62.0772 31.6789C61.4854 31.0838 60.685 30.7428 59.8458 30.7283C59.0067 30.7139 58.1949 31.0272 57.583 31.6016L56.2621 32.8345C54.2143 31.637 52.0129 30.7239 49.7188 30.1201L49.6563 28.3182C49.6297 27.4799 49.2776 26.6849 48.6746 26.1019C48.0717 25.5188 47.2653 25.1937 46.4266 25.1953H39.5768C38.7375 25.1928 37.9303 25.5176 37.3266 26.1007C36.7229 26.6838 36.3703 27.4793 36.3437 28.3182L36.2812 30.1208C33.9852 30.7219 31.7818 31.6331 29.7318 32.8291L28.4203 31.6016C27.8084 31.027 26.9965 30.7136 26.1572 30.728C25.3179 30.7425 24.5173 31.0836 23.9255 31.6789L19.0812 36.5204C18.486 37.1121 18.1449 37.9125 18.1304 38.7517C18.1158 39.5909 18.429 40.4026 19.0033 41.0146L20.2362 42.3355C19.0389 44.3835 18.1258 46.5848 17.5218 48.8789L15.7199 48.9414C14.881 48.968 14.0855 49.3205 13.5024 49.9242C12.9193 50.5279 12.5945 51.3351 12.597 52.1744V59.0208C12.5945 59.8605 12.9195 60.668 13.5031 61.2718C14.0866 61.8755 14.8826 62.2278 15.7219 62.2539L17.5245 62.3157C18.1258 64.6117 19.0369 66.8151 20.2328 68.8652L19.0053 70.1807C18.4468 70.7766 18.1359 71.5627 18.1359 72.3794C18.1359 73.1961 18.4468 73.9822 19.0053 74.5781H9.07031C7.19995 74.576 5.4068 73.832 4.08425 72.5095C2.7617 71.1869 2.01776 69.3938 2.01562 67.5234V20.1562H83.9844V67.5234ZM83.9844 18.1406H2.01562V9.07031C2.01776 7.19995 2.7617 5.4068 4.08425 4.08425C5.4068 2.7617 7.19995 2.01776 9.07031 2.01562H76.9297C78.8 2.01776 80.5932 2.7617 81.9157 4.08425C83.2383 5.4068 83.9822 7.19995 83.9844 9.07031V18.1406Z" fill="#C9DC00"/>
<path d="M43 34.6016C38.8474 34.6016 34.788 35.833 31.3352 38.14C27.8824 40.4471 25.1913 43.7263 23.6021 47.5628C22.013 51.3993 21.5972 55.6209 22.4073 59.6938C23.2175 63.7666 25.2172 67.5078 28.1535 70.4441C31.0899 73.3805 34.831 75.3802 38.9039 76.1903C42.9767 77.0004 47.1983 76.5846 51.0349 74.9955C54.8714 73.4064 58.1505 70.7152 60.4576 67.2624C62.7647 63.8097 63.9961 59.7503 63.9961 55.5976C63.9897 50.0311 61.7756 44.6944 57.8394 40.7582C53.9033 36.8221 48.5665 34.608 43 34.6016ZM43 74.5781C39.246 74.5781 35.5763 73.4649 32.455 71.3793C29.3337 69.2937 26.9009 66.3294 25.4643 62.8611C24.0277 59.3929 23.6519 55.5766 24.3842 51.8947C25.1166 48.2129 26.9243 44.8309 29.5788 42.1764C32.2332 39.522 35.6152 37.7142 39.2971 36.9819C42.9789 36.2495 46.7953 36.6254 50.2635 38.062C53.7317 39.4986 56.6961 41.9313 58.7817 45.0527C60.8673 48.174 61.9805 51.8437 61.9805 55.5976C61.9748 60.6298 59.9732 65.4543 56.4149 69.0126C52.8566 72.5709 48.0322 74.5724 43 74.5781Z" fill="#C9DC00"/>
</svg>
