<svg width="202" height="202" viewBox="0 0 202 202" fill="none" xmlns="http://www.w3.org/2000/svg">
<path d="M152.243 130.706C152.243 159.006 129.301 181.948 101 181.948C72.6999 181.948 49.7578 159.006 49.7578 130.706C49.7578 102.405 72.6999 79.4631 101 79.4631C129.301 79.4631 152.243 102.405 152.243 130.706Z" fill="#C9DC00"/>
<path d="M83.3872 115.435H87.9068L95.8392 136.097L91.1043 136.65L89.4133 131.823H81.8192L80.1897 136.342H75.3933L83.3872 115.435ZM87.999 128.01L85.5394 121.523L83.172 128.01H87.999Z" fill="white"/>
<path d="M103.451 129.671V136.342H98.6545V115.435H106.372C107.95 115.435 109.375 115.702 110.645 116.235C111.916 116.747 112.92 117.536 113.658 118.602C114.417 119.668 114.796 120.99 114.796 122.568C114.796 124.126 114.396 125.438 113.597 126.504C112.798 127.57 111.732 128.369 110.399 128.902C109.088 129.414 107.653 129.671 106.095 129.671H103.451ZM108.831 120.17C108.216 119.596 107.345 119.309 106.218 119.309H103.451V125.827H106.279C107.304 125.827 108.134 125.551 108.77 124.997C109.426 124.423 109.764 123.655 109.784 122.691C109.784 121.585 109.467 120.744 108.831 120.17Z" fill="white"/>
<path d="M122.817 136.342H118.021V115.435H122.817V136.342Z" fill="white"/>
<path d="M78.1562 145.72V150.178H75.7427V142.738H76.9725L77.6489 143.798C78.0076 143.522 78.4226 143.276 78.8941 143.06C79.3655 142.835 79.7908 142.722 80.17 142.722L80.6466 144.644C80.2879 144.644 79.8728 144.746 79.4014 144.951C78.9402 145.146 78.5251 145.402 78.1562 145.72Z" fill="white"/>
<path d="M88.5153 146.381V147.103H83.7343C83.9598 147.975 84.6157 148.41 85.7021 148.41C86.4092 148.41 87.1112 148.215 87.8081 147.826L88.4845 149.502C88.1361 149.758 87.7057 149.963 87.1932 150.116C86.6911 150.27 86.1376 150.347 85.533 150.347C84.1699 150.347 83.0938 150.004 82.3047 149.317C81.5258 148.63 81.1363 147.677 81.1363 146.458C81.1363 145.658 81.3003 144.961 81.6283 144.367C81.9562 143.762 82.4123 143.301 82.9965 142.984C83.5909 142.656 84.2673 142.492 85.0257 142.492C85.7841 142.492 86.4246 142.666 86.9473 143.014C87.4699 143.363 87.8594 143.829 88.1156 144.413C88.3821 144.997 88.5153 145.653 88.5153 146.381ZM84.1033 144.828C83.8778 145.054 83.7446 145.356 83.7036 145.735H86.2247C86.1632 145.356 86.0249 145.054 85.8097 144.828C85.6047 144.593 85.3229 144.475 84.9642 144.475C84.626 144.475 84.339 144.593 84.1033 144.828Z" fill="white"/>
<path d="M92.2111 150.178H89.813V139.494L92.2111 139.325V150.178Z" fill="white"/>
<path d="M101.5 149.409C100.742 149.922 99.763 150.178 98.5639 150.178H94.444V139.724H98.3026C99.4607 139.724 100.393 139.97 101.1 140.462C101.818 140.944 102.177 141.687 102.177 142.691C102.177 143.327 101.828 143.952 101.131 144.567C101.592 144.854 101.956 145.207 102.223 145.628C102.499 146.048 102.638 146.53 102.638 147.073C102.638 148.108 102.259 148.887 101.5 149.409ZM99.6708 142.784C99.6708 142.036 99.1481 141.661 98.1027 141.661H96.8422V143.829H97.8875C98.4102 143.829 98.8355 143.742 99.1635 143.568C99.5017 143.393 99.6708 143.132 99.6708 142.784ZM99.7169 146.104C99.4402 145.868 99.061 145.751 98.5793 145.751H96.8422V148.256H98.5178C99.0097 148.256 99.4043 148.154 99.7015 147.949C99.9987 147.734 100.147 147.437 100.147 147.057C100.147 146.647 100.004 146.33 99.7169 146.104Z" fill="white"/>
<path d="M105.493 144.69C105.114 144.782 104.78 144.895 104.494 145.028L103.848 143.183C104.186 142.999 104.652 142.84 105.247 142.707C105.841 142.563 106.374 142.492 106.846 142.492C107.471 142.492 108.024 142.615 108.506 142.861C108.987 143.106 109.356 143.455 109.613 143.906C109.879 144.347 110.012 144.854 110.012 145.428V150.178H108.675L108.106 149.394C107.553 150.029 106.943 150.347 106.277 150.347C105.375 150.347 104.693 150.127 104.232 149.686C103.771 149.235 103.54 148.625 103.54 147.857C103.54 147.098 103.797 146.53 104.309 146.15C104.821 145.771 105.523 145.582 106.415 145.582H107.583C107.563 145.254 107.455 145.002 107.261 144.828C107.076 144.644 106.825 144.552 106.507 144.552C106.21 144.552 105.872 144.598 105.493 144.69ZM105.8 147.257C105.646 147.411 105.57 147.606 105.57 147.841C105.57 148.026 105.636 148.185 105.769 148.318C105.903 148.451 106.077 148.518 106.292 148.518C106.743 148.518 107.179 148.323 107.599 147.934V147.027H106.43C106.174 147.027 105.964 147.103 105.8 147.257Z" fill="white"/>
<path d="M112.516 150.147C111.932 150.014 111.465 149.809 111.117 149.532L111.824 147.964C112.142 148.118 112.49 148.246 112.87 148.349C113.259 148.441 113.587 148.487 113.853 148.487C114.099 148.487 114.315 148.446 114.499 148.364C114.694 148.272 114.791 148.149 114.791 147.995C114.791 147.862 114.699 147.734 114.514 147.611C114.34 147.488 114.094 147.375 113.777 147.273C113.028 147.016 112.413 146.699 111.932 146.319C111.45 145.94 111.209 145.459 111.209 144.874C111.209 144.136 111.486 143.557 112.039 143.137C112.593 142.707 113.351 142.492 114.315 142.492C114.704 142.492 115.155 142.558 115.667 142.691C116.19 142.814 116.631 143.009 116.989 143.276L116.298 144.844C115.58 144.526 114.945 144.367 114.391 144.367C114.156 144.367 113.961 144.413 113.807 144.505C113.654 144.598 113.577 144.716 113.577 144.859C113.577 145.023 113.899 145.218 114.545 145.443C116.257 146.038 117.112 146.868 117.112 147.934C117.112 148.702 116.846 149.297 116.313 149.717C115.79 150.137 115.022 150.347 114.007 150.347C113.597 150.347 113.1 150.28 112.516 150.147Z" fill="white"/>
<path d="M125.176 146.381V147.103H120.395C120.62 147.975 121.276 148.41 122.363 148.41C123.07 148.41 123.772 148.215 124.469 147.826L125.145 149.502C124.797 149.758 124.366 149.963 123.854 150.116C123.352 150.27 122.798 150.347 122.193 150.347C120.83 150.347 119.754 150.004 118.965 149.317C118.186 148.63 117.797 147.677 117.797 146.458C117.797 145.658 117.961 144.961 118.289 144.367C118.617 143.762 119.073 143.301 119.657 142.984C120.251 142.656 120.928 142.492 121.686 142.492C122.445 142.492 123.085 142.666 123.608 143.014C124.13 143.363 124.52 143.829 124.776 144.413C125.043 144.997 125.176 145.653 125.176 146.381ZM120.764 144.828C120.538 145.054 120.405 145.356 120.364 145.735H122.885C122.824 145.356 122.685 145.054 122.47 144.828C122.265 144.593 121.983 144.475 121.625 144.475C121.286 144.475 121 144.593 120.764 144.828Z" fill="white"/>
<path d="M24.4609 17.3594C23.0564 17.3594 21.6834 17.7759 20.5155 18.5562C19.3477 19.3365 18.4374 20.4456 17.8999 21.7433C17.3624 23.0409 17.2218 24.4688 17.4958 25.8464C17.7698 27.224 18.4462 28.4893 19.4394 29.4825C20.4325 30.4757 21.6979 31.152 23.0755 31.426C24.4531 31.7001 25.8809 31.5594 27.1786 31.0219C28.4762 30.4844 29.5853 29.5742 30.3657 28.4064C31.146 27.2385 31.5625 25.8655 31.5625 24.4609C31.5604 22.5781 30.8115 20.773 29.4802 19.4417C28.1488 18.1103 26.3437 17.3615 24.4609 17.3594ZM24.4609 26.8281C23.9928 26.8281 23.5351 26.6893 23.1458 26.4292C22.7565 26.1691 22.4531 25.7994 22.2739 25.3668C22.0948 24.9343 22.0479 24.4583 22.1392 23.9991C22.2306 23.5399 22.456 23.1181 22.7871 22.7871C23.1181 22.456 23.5399 22.2306 23.9991 22.1392C24.4583 22.0479 24.9343 22.0948 25.3668 22.2739C25.7994 22.4531 26.1691 22.7565 26.4292 23.1458C26.6893 23.5351 26.8281 23.9928 26.8281 24.4609C26.8281 25.0888 26.5787 25.6909 26.1348 26.1348C25.6909 26.5787 25.0888 26.8281 24.4609 26.8281Z" fill="#C9DC00"/>
<path d="M74.9609 17.3594C73.5564 17.3594 72.1834 17.7759 71.0155 18.5562C69.8477 19.3365 68.9374 20.4456 68.3999 21.7433C67.8624 23.0409 67.7218 24.4688 67.9958 25.8464C68.2698 27.224 68.9462 28.4893 69.9394 29.4825C70.9325 30.4757 72.1979 31.152 73.5755 31.426C74.9531 31.7001 76.381 31.5594 77.6786 31.0219C78.9762 30.4844 80.0853 29.5742 80.8657 28.4064C81.646 27.2385 82.0625 25.8655 82.0625 24.4609C82.0604 22.5781 81.3115 20.773 79.9802 19.4417C78.6488 18.1103 76.8438 17.3615 74.9609 17.3594ZM74.9609 26.8281C74.4928 26.8281 74.0351 26.6893 73.6458 26.4292C73.2565 26.1691 72.9531 25.7994 72.7739 25.3668C72.5948 24.9343 72.5479 24.4583 72.6392 23.9991C72.7306 23.5399 72.956 23.1181 73.2871 22.7871C73.6181 22.456 74.0399 22.2306 74.4991 22.1392C74.9583 22.0479 75.4343 22.0948 75.8668 22.2739C76.2994 22.4531 76.6691 22.7565 76.9292 23.1458C77.1893 23.5351 77.3281 23.9928 77.3281 24.4609C77.3281 25.0888 77.0787 25.6909 76.6348 26.1348C76.1909 26.5787 75.5888 26.8281 74.9609 26.8281Z" fill="#C9DC00"/>
<path d="M49.7109 17.3594C48.3064 17.3594 46.9334 17.7759 45.7655 18.5562C44.5977 19.3365 43.6875 20.4456 43.15 21.7433C42.6124 23.0409 42.4718 24.4688 42.7458 25.8464C43.0198 27.224 43.6962 28.4893 44.6894 29.4825C45.6825 30.4757 46.9479 31.152 48.3255 31.426C49.7031 31.7001 51.1309 31.5594 52.4286 31.0219C53.7262 30.4844 54.8353 29.5742 55.6157 28.4064C56.396 27.2385 56.8125 25.8655 56.8125 24.4609C56.8104 22.5781 56.0615 20.773 54.7302 19.4417C53.3988 18.1103 51.5937 17.3615 49.7109 17.3594ZM49.7109 26.8281C49.2428 26.8281 48.7851 26.6893 48.3958 26.4292C48.0065 26.1691 47.7031 25.7994 47.5239 25.3668C47.3448 24.9343 47.2979 24.4583 47.3892 23.9991C47.4806 23.5399 47.706 23.1181 48.0371 22.7871C48.3681 22.456 48.7899 22.2306 49.2491 22.1392C49.7083 22.0479 50.1843 22.0948 50.6168 22.2739C51.0494 22.4531 51.4191 22.7565 51.6792 23.1458C51.9393 23.5351 52.0781 23.9928 52.0781 24.4609C52.0781 25.0888 51.8287 25.6909 51.3848 26.1348C50.9409 26.5787 50.3388 26.8281 49.7109 26.8281Z" fill="#C9DC00"/>
<path d="M175.961 17.3594H150.711C148.827 17.3594 147.021 18.1076 145.689 19.4394C144.358 20.7712 143.609 22.5775 143.609 24.4609C143.609 26.3444 144.358 28.1507 145.689 29.4825C147.021 30.8143 148.827 31.5625 150.711 31.5625H175.961C177.844 31.5625 179.651 30.8143 180.983 29.4825C182.314 28.1507 183.062 26.3444 183.062 24.4609C183.062 22.5775 182.314 20.7712 180.983 19.4394C179.651 18.1076 177.844 17.3594 175.961 17.3594ZM175.961 26.8281H150.711C150.083 26.8281 149.481 26.5787 149.037 26.1348C148.593 25.6909 148.344 25.0888 148.344 24.4609C148.344 23.8331 148.593 23.231 149.037 22.7871C149.481 22.3431 150.083 22.0938 150.711 22.0938H175.961C176.589 22.0938 177.191 22.3431 177.635 22.7871C178.079 23.231 178.328 23.8331 178.328 24.4609C178.328 25.0888 178.079 25.6909 177.635 26.1348C177.191 26.5787 176.589 26.8281 175.961 26.8281Z" fill="#C9DC00"/>
<path d="M180.695 0H21.3047C15.6563 0.0062656 10.241 2.25287 6.24692 6.24692C2.25287 10.241 0.0062656 15.6563 0 21.3047V158.602C0.0062656 164.25 2.25287 169.665 6.24692 173.659C10.241 177.653 15.6563 179.9 21.3047 179.906H49.3275L56.1907 186.77C57.5806 188.168 59.461 188.97 61.4324 189.004C63.4038 189.038 65.3109 188.302 66.7484 186.953L69.851 184.057C74.6606 186.869 79.8306 189.014 85.2188 190.432L85.3639 194.665C85.4264 196.636 86.2547 198.504 87.673 199.874C89.0913 201.244 90.9878 202.006 92.9594 202H109.048C111.02 202.006 112.916 201.243 114.334 199.873C115.752 198.504 116.58 196.635 116.642 194.665L116.781 190.431C122.174 189.019 127.349 186.878 132.163 184.069L135.253 186.953C136.69 188.302 138.597 189.038 140.568 189.004C142.539 188.97 144.419 188.169 145.809 186.771L152.673 179.906H180.695C186.344 179.9 191.759 177.653 195.753 173.659C199.747 169.665 201.994 164.25 202 158.602V21.3047C201.994 15.6563 199.747 10.241 195.753 6.24692C191.759 2.25287 186.344 0.0062656 180.695 0ZM153.834 172.05L142.461 183.424C141.937 183.951 141.228 184.253 140.485 184.266C139.742 184.278 139.023 184 138.482 183.49L134.085 179.387C133.704 179.032 133.216 178.812 132.698 178.762C132.179 178.712 131.658 178.835 131.216 179.111C125.893 182.432 120.055 184.846 113.941 186.255C113.433 186.373 112.979 186.655 112.648 187.057C112.317 187.459 112.128 187.96 112.11 188.48L111.902 194.501C111.879 195.242 111.568 195.945 111.035 196.461C110.503 196.978 109.79 197.266 109.048 197.266H92.9594C92.2161 197.268 91.5011 196.981 90.9664 196.465C90.4318 195.948 90.1198 195.244 90.0967 194.501L89.89 188.482C89.8721 187.961 89.6829 187.461 89.3516 187.058C89.0203 186.656 88.5656 186.374 88.0578 186.257C81.9474 184.842 76.1142 182.422 70.7963 179.097C70.3542 178.821 69.8334 178.698 69.3146 178.749C68.7959 178.799 68.3082 179.019 67.9272 179.374L63.518 183.49C62.9769 184 62.2582 184.278 61.5149 184.265C60.7717 184.253 60.0628 183.95 59.5395 183.422L48.1675 172.05C47.64 171.527 47.3377 170.818 47.3251 170.075C47.3124 169.332 47.5903 168.613 48.0997 168.072L52.2028 163.675C52.5582 163.294 52.7779 162.806 52.8279 162.288C52.8778 161.769 52.7552 161.248 52.479 160.806C49.1585 155.483 46.7444 149.646 45.3348 143.532C45.2173 143.024 44.9356 142.57 44.5332 142.238C44.1309 141.907 43.6305 141.718 43.1096 141.7L37.0859 141.493C36.343 141.47 35.6384 141.158 35.122 140.623C34.6056 140.089 34.3182 139.374 34.3211 138.63V122.549C34.3182 121.806 34.6056 121.091 35.122 120.556C35.6384 120.022 36.343 119.71 37.0859 119.687L43.1049 119.478C43.6255 119.46 44.1258 119.271 44.5281 118.941C44.9304 118.61 45.2123 118.155 45.3301 117.648C46.7463 111.537 49.1668 105.703 52.4932 100.385C52.7688 99.9426 52.8909 99.4221 52.8407 98.9037C52.7905 98.3853 52.5707 97.8979 52.2154 97.5171L48.0997 93.1094C47.5903 92.5682 47.3124 91.8495 47.3251 91.1064C47.3377 90.3633 47.64 89.6545 48.1675 89.1309L59.5395 77.7589C60.0628 77.2311 60.7717 76.9285 61.5149 76.9158C62.2582 76.9032 62.9769 77.1814 63.518 77.6911L67.9146 81.7942C68.2967 82.1484 68.7849 82.3667 69.3036 82.4152C69.8223 82.4637 70.3425 82.3397 70.7836 82.0625C76.1074 78.7434 81.9454 76.3313 88.0594 74.9246C88.5671 74.8072 89.0219 74.5254 89.3532 74.1231C89.6845 73.7207 89.8737 73.2203 89.8916 72.6995L90.0983 66.6789C90.1213 65.9363 90.4331 65.2319 90.9675 64.7155C91.5018 64.1992 92.2164 63.9117 92.9594 63.9141H109.048C109.792 63.9112 110.507 64.1986 111.041 64.715C111.576 65.2314 111.888 65.936 111.911 66.6789L112.119 72.6963C112.137 73.217 112.326 73.7172 112.657 74.1195C112.988 74.5218 113.443 74.8037 113.95 74.9215C120.058 76.3383 125.889 78.7578 131.205 82.0814C131.647 82.357 132.168 82.4792 132.686 82.429C133.205 82.3788 133.692 82.159 134.073 81.8037L138.482 77.6895C139.023 77.1803 139.742 76.9024 140.485 76.9147C141.228 76.9271 141.937 77.2289 142.461 77.7558L153.834 89.1293C154.361 89.6534 154.663 90.3625 154.676 91.1059C154.688 91.8493 154.41 92.5681 153.9 93.1094L149.797 97.506C149.442 97.8872 149.222 98.3749 149.172 98.8937C149.122 99.4124 149.245 99.9331 149.521 100.375C152.842 105.698 155.256 111.535 156.665 117.649C156.783 118.157 157.065 118.611 157.467 118.942C157.869 119.273 158.37 119.462 158.89 119.48L164.911 119.688C165.654 119.711 166.358 120.023 166.875 120.558C167.391 121.093 167.679 121.808 167.676 122.551V138.632C167.679 139.375 167.391 140.09 166.875 140.625C166.358 141.16 165.654 141.472 164.911 141.495L158.892 141.701C158.371 141.719 157.871 141.909 157.468 142.24C157.066 142.571 156.784 143.026 156.667 143.534C155.252 149.644 152.833 155.477 149.508 160.795C149.232 161.237 149.11 161.758 149.16 162.277C149.21 162.796 149.43 163.283 149.786 163.664L153.9 168.073C154.409 168.615 154.687 169.333 154.674 170.075C154.662 170.818 154.361 171.526 153.834 172.05ZM197.266 158.602C197.261 162.995 195.513 167.207 192.407 170.313C189.3 173.419 185.089 175.167 180.695 175.172H157.367C158.679 173.772 159.409 171.926 159.409 170.007C159.409 168.089 158.679 166.243 157.367 164.843L154.472 161.739C157.284 156.929 159.429 151.758 160.847 146.37L165.08 146.224C167.05 146.162 168.919 145.334 170.288 143.916C171.658 142.498 172.421 140.602 172.415 138.63V122.549C172.421 120.578 171.658 118.682 170.288 117.264C168.919 115.846 167.05 115.018 165.08 114.955L160.846 114.809C159.432 109.414 157.291 104.238 154.48 99.4219L157.363 96.3319C158.712 94.8947 159.448 92.9881 159.414 91.017C159.38 89.046 158.579 87.1658 157.181 85.7758L145.809 74.4086C144.419 73.0107 142.539 72.2098 140.568 72.1759C138.597 72.142 136.69 72.8779 135.253 74.2271L132.151 77.123C127.34 74.3102 122.17 72.1654 116.781 70.7473L116.634 66.5148C116.572 64.5457 115.745 62.6785 114.329 61.309C112.913 59.9396 111.018 59.1758 109.048 59.1797H92.9594C90.988 59.1738 89.092 59.9367 87.674 61.3063C86.2561 62.6759 85.4279 64.5444 85.3655 66.5148L85.2188 70.7489C79.8258 72.1608 74.6503 74.301 69.8352 77.1103L66.7547 74.2271C65.3174 72.8774 63.4104 72.1413 61.439 72.1751C59.4676 72.209 57.5871 73.0103 56.197 74.4086L44.8187 85.7806C43.4207 87.1703 42.6195 89.0504 42.5853 91.0215C42.5511 92.9925 43.2866 94.8992 44.6357 96.3366L47.5315 99.4392C44.7194 104.25 42.5745 109.42 41.1559 114.809L36.9234 114.955C34.953 115.018 33.0845 115.846 31.7149 117.264C30.3452 118.682 29.5823 120.578 29.5883 122.549V138.63C29.5824 140.603 30.3459 142.499 31.7166 143.917C33.0872 145.336 34.9569 146.163 36.9281 146.224L41.1622 146.37C42.5745 151.762 44.7147 156.938 47.5237 161.753L44.6404 164.843C43.3284 166.243 42.5983 168.089 42.5983 170.007C42.5983 171.926 43.3284 173.772 44.6404 175.172H21.3047C16.9115 175.167 12.6997 173.419 9.59324 170.313C6.48679 167.207 4.73939 162.995 4.73438 158.602V47.3438H197.266V158.602ZM197.266 42.6094H4.73438V21.3047C4.73939 16.9115 6.48679 12.6997 9.59324 9.59324C12.6997 6.48679 16.9115 4.73939 21.3047 4.73438H180.695C185.089 4.73939 189.3 6.48679 192.407 9.59324C195.513 12.6997 197.261 16.9115 197.266 21.3047V42.6094Z" fill="#C9DC00"/>
<path d="M101 81.2734C91.2461 81.2734 81.7113 84.1658 73.6013 89.5847C65.4912 95.0037 59.1702 102.706 55.4376 111.717C51.7049 120.729 50.7283 130.645 52.6312 140.211C54.5341 149.777 59.231 158.565 66.128 165.462C73.0251 172.359 81.8124 177.056 91.3788 178.959C100.945 180.862 110.861 179.885 119.873 176.152C128.884 172.42 136.586 166.099 142.005 157.989C147.424 149.879 150.316 140.344 150.316 130.59C150.301 117.515 145.101 104.98 135.855 95.7345C126.61 86.4891 114.075 81.2885 101 81.2734ZM101 175.172C92.1825 175.172 83.563 172.557 76.2316 167.658C68.9001 162.76 63.1859 155.797 59.8116 147.651C56.4373 139.504 55.5544 130.54 57.2746 121.892C58.9948 113.244 63.2408 105.3 69.4757 99.0656C75.7107 92.8307 83.6544 88.5846 92.3025 86.8644C100.951 85.1442 109.915 86.0271 118.061 89.4014C126.207 92.7757 133.17 98.4899 138.069 105.821C142.967 113.153 145.582 121.772 145.582 130.59C145.569 142.41 140.867 153.741 132.51 162.099C124.152 170.457 112.82 175.159 101 175.172Z" fill="#C9DC00"/>
</svg>
