<svg width="33" height="38" viewBox="0 0 33 38" fill="none" xmlns="http://www.w3.org/2000/svg">
<path d="M8.88461 0.139404C6.78169 0.139404 5.07692 1.94357 5.07692 4.1691V10.8853H7.61538V4.1691C7.61538 3.42726 8.18364 2.82587 8.88461 2.82587H12.308L14.3879 4.29329C15.6669 5.19567 17.3331 5.19567 18.6121 4.29329L20.692 2.82587H24.1154C24.8164 2.82587 25.3846 3.42726 25.3846 4.1691V10.8853H27.9231V4.1691C27.9231 1.94357 26.2184 0.139404 24.1154 0.139404H8.88461Z" fill="#C9DC00"/>
<path d="M5.07692 33.7202V27.0041H7.61538V33.7202C7.61538 34.4621 8.18364 35.0635 8.88461 35.0635H24.1154C24.8164 35.0635 25.3846 34.4621 25.3846 33.7202V27.0041H27.9231V33.7202C27.9231 35.9458 26.2184 37.7499 24.1154 37.7499H8.88461C6.78169 37.7499 5.07692 35.9458 5.07692 33.7202Z" fill="#C9DC00"/>
<path fill-rule="evenodd" clip-rule="evenodd" d="M2.53846 13.5717C1.13651 13.5717 0 14.7745 0 16.2582V21.6311C0 23.1149 1.13651 24.3176 2.53846 24.3176H7.61538C9.01738 24.3176 10.1538 23.1149 10.1538 21.6311V16.2582C10.1538 14.7745 9.01738 13.5717 7.61538 13.5717H2.53846ZM2.53846 21.6311V16.2582H7.61538V21.6311H2.53846Z" fill="#C9DC00"/>
<path fill-rule="evenodd" clip-rule="evenodd" d="M13.9615 13.5717C12.5595 13.5717 11.4231 14.7745 11.4231 16.2582V21.6311C11.4231 23.1149 12.5595 24.3176 13.9615 24.3176H19.0385C20.4405 24.3176 21.5769 23.1149 21.5769 21.6311V16.2582C21.5769 14.7745 20.4405 13.5717 19.0385 13.5717H13.9615ZM13.9615 16.2582H19.0385V21.6311H13.9615V16.2582Z" fill="#C9DC00"/>
<path fill-rule="evenodd" clip-rule="evenodd" d="M22.8462 16.2582C22.8462 14.7745 23.9826 13.5717 25.3846 13.5717H30.4615C31.8635 13.5717 33 14.7745 33 16.2582V21.6311C33 23.1149 31.8635 24.3176 30.4615 24.3176H25.3846C23.9826 24.3176 22.8462 23.1149 22.8462 21.6311V16.2582ZM30.4615 21.6311V16.2582H25.3846V21.6311H30.4615Z" fill="#C9DC00"/>
</svg>
