<svg width="36" height="36" viewBox="0 0 36 36" fill="none" xmlns="http://www.w3.org/2000/svg">
<path d="M21.636 25.128C21.924 25.416 22.104 25.812 22.104 26.244C22.104 26.676 21.924 27.072 21.636 27.36L15.66 33.3C14.184 34.776 12.276 35.676 10.224 35.928V36H9.144C6.696 36 4.392 35.028 2.664 33.3C1.188 31.824 0.288 29.916 0.036 27.864H0V26.784C0 24.336 0.972 22.032 2.7 20.304L8.64 14.364C10.368 12.636 12.672 11.664 15.12 11.664C17.568 11.664 19.872 12.636 21.6 14.364C22.212 14.976 22.212 15.984 21.6 16.632C21.312 16.92 20.88 17.1 20.484 17.1C20.052 17.1 19.656 16.92 19.368 16.632C18.252 15.516 16.74 14.868 15.12 14.868C13.5 14.868 12.024 15.48 10.872 16.632L4.932 22.572C3.816 23.688 3.204 25.2 3.204 26.82V26.964C3.24 28.512 3.852 29.952 4.932 31.032C6.048 32.148 7.56 32.76 9.18 32.76H9.36C10.908 32.724 12.348 32.112 13.428 31.032L19.368 25.092C19.656 24.804 20.088 24.624 20.484 24.624C20.916 24.66 21.312 24.804 21.636 25.128ZM35.928 8.1C35.676 6.048 34.776 4.14 33.3 2.664C31.572 0.972 29.268 0 26.82 0H25.74V0.072C23.688 0.324 21.78 1.224 20.304 2.7L14.364 8.64C14.076 8.928 13.896 9.36 13.896 9.756C13.896 10.188 14.076 10.584 14.364 10.872C14.976 11.484 15.984 11.484 16.632 10.872L22.572 4.932C23.652 3.852 25.092 3.24 26.64 3.204H26.784C28.404 3.204 29.88 3.816 31.032 4.932C32.112 6.012 32.724 7.488 32.76 9V9.144C32.76 10.764 32.148 12.276 31.032 13.392L25.128 19.368C24.012 20.484 22.5 21.132 20.88 21.132C19.26 21.132 17.784 20.52 16.632 19.368C16.344 19.08 15.912 18.9 15.516 18.9C15.084 18.9 14.688 19.08 14.4 19.368C14.112 19.656 13.932 20.088 13.932 20.484C13.932 20.916 14.112 21.312 14.4 21.6C16.128 23.328 18.432 24.3 20.88 24.3C23.328 24.3 25.632 23.328 27.36 21.6L33.3 15.66C35.028 13.932 36 11.628 36 9.18V8.1H35.928Z" fill="#C9DC00"/>
</svg>
