<svg width="41" height="50" viewBox="0 0 41 50" fill="none" xmlns="http://www.w3.org/2000/svg">
<path d="M0.800009 2.09273C0.797922 1.54163 1.14136 1.06285 1.6347 0.877957L1.59255 0.82313L1.97057 0.801746C2.00983 0.799526 2.04936 0.799427 2.08882 0.801427H20.4993M0.800009 2.09273V2.09234H1.00001L0.800011 2.09316C0.800011 2.09302 0.80001 2.09288 0.800009 2.09273ZM0.800009 2.09273L0.800009 40.2732L0.800009 40.2734C0.800456 40.9846 1.37332 41.564 2.08362 41.564H15.9334M15.9334 41.564C17.8896 46.0632 22.3599 49.2 27.5418 49.2C34.521 49.2 40.2 43.4797 40.2 36.4548C40.2 30.4367 36.0316 25.3851 30.4501 24.0575M15.9334 41.564C15.9158 41.5234 15.8983 41.4827 15.881 41.4418L16.0653 41.364V41.564H15.9334ZM30.4501 24.0575V10.8196M30.4501 24.0575V24.2165H30.2501L30.2939 24.0214C30.3461 24.0331 30.3981 24.0451 30.4501 24.0575ZM30.4501 10.8196V10.8191H30.2501L30.4501 10.8206C30.4501 10.8203 30.4501 10.82 30.4501 10.8196ZM30.4501 10.8196C30.4525 10.4726 30.3156 10.1388 30.0702 9.89415C30.07 9.89398 30.0699 9.89381 30.0697 9.89363L21.4037 1.16715L21.4037 1.16713L21.4014 1.1649C21.1598 0.929325 20.8359 0.798936 20.4993 0.801427M20.4993 0.801427H20.5V1.00143L20.4984 0.801433C20.4987 0.801431 20.499 0.801429 20.4993 0.801427ZM27.4011 34.0574L27.4013 34.0573C27.7691 34.0167 28.1362 34.1376 28.4087 34.3889C28.4088 34.389 28.4089 34.3891 28.409 34.3892L28.2734 34.5362C28.5038 34.7481 28.6319 35.0502 28.6251 35.3641L27.4011 34.0574ZM27.4011 34.0574C26.7398 34.1308 26.2455 34.6996 26.2586 35.366V42.4536C26.2541 42.7984 26.3867 43.1303 26.6274 43.3763C26.8686 43.6227 27.1978 43.7613 27.5419 43.7613C27.8855 43.7613 28.2151 43.6228 28.4563 43.3763C28.697 43.1303 28.8296 42.7983 28.8251 42.4536V35.3661L27.4011 34.0574ZM20.5 12.1103H27.883V23.7185C27.7706 23.7139 27.6558 23.7104 27.5416 23.7104C20.5619 23.7104 14.8834 29.4307 14.8834 36.4556C14.8834 37.3182 14.9774 38.1678 15.1414 38.9828H3.36663L3.36685 3.38312H19.2167V10.8191C19.2167 11.531 19.7901 12.1098 20.4998 12.1103H20.5ZM28.4089 29.4799L28.2734 29.627L28.4088 29.4799C28.1363 29.2289 27.7692 29.108 27.4013 29.1486C26.7398 29.2216 26.2454 29.7906 26.2586 30.4573V31.5448C26.2541 31.8895 26.3867 32.2215 26.6274 32.4674C26.8686 32.7139 27.1978 32.8525 27.5419 32.8525C27.8855 32.8525 28.2151 32.7139 28.4563 32.4674C28.697 32.2215 28.8296 31.8895 28.8251 31.5448V30.4573C28.8325 30.0867 28.6812 29.7307 28.4089 29.4799ZM21.7834 9.52832V5.2024L26.0793 9.52832H21.7834ZM27.5419 26.2917C33.1267 26.2917 37.6334 30.8277 37.6334 36.455C37.6334 42.0823 33.1268 46.6184 27.5419 46.6184C21.9567 46.6184 17.4503 42.0824 17.4503 36.455C17.4503 30.8275 21.9569 26.2917 27.5419 26.2917Z" fill="#C9DC00" stroke="white" stroke-width="0.4"/>
</svg>
