<svg width="40" height="40" viewBox="0 0 40 40" fill="none" xmlns="http://www.w3.org/2000/svg">
<circle cx="20" cy="20" r="19.5" fill="white" stroke="#556170"/>
<path d="M19.7216 13.262C20.6603 13.262 21.467 13.4307 22.1416 13.768C22.8163 14.1053 23.3296 14.5673 23.6816 15.154C24.0483 15.7407 24.2316 16.4007 24.2316 17.134C24.2316 17.8087 24.1216 18.41 23.9016 18.938C23.6816 19.4513 23.3516 19.9573 22.9116 20.456C22.4716 20.94 21.8923 21.4827 21.1736 22.084L19.0836 23.844L24.6496 23.822L24.9136 26H15.1896V24.086L19.6336 20.302C20.1176 19.8767 20.521 19.488 20.8436 19.136C21.181 18.784 21.4303 18.454 21.5916 18.146C21.753 17.8233 21.8336 17.53 21.8336 17.266C21.8336 16.7087 21.6136 16.2907 21.1736 16.012C20.7336 15.7187 20.147 15.572 19.4136 15.572C18.9736 15.572 18.5336 15.638 18.0936 15.77C17.6683 15.8873 17.2723 16.034 16.9056 16.21C16.539 16.386 16.2236 16.5473 15.9596 16.694L15.4756 14.406C15.8863 14.1567 16.451 13.9073 17.1696 13.658C17.8883 13.394 18.739 13.262 19.7216 13.262Z" fill="#556170"/>
</svg>
