<svg width="57" height="57" viewBox="0 0 57 57" fill="none" xmlns="http://www.w3.org/2000/svg">
<circle cx="28.5" cy="28.5" r="28.5" fill="#C9DC00"/>
<path d="M21.1778 37.6504C21.1778 36.5537 21.2595 35.5737 21.4228 34.7104C21.6095 33.8471 21.9128 33.0537 22.3328 32.3304C22.7528 31.6071 23.3011 30.9421 23.9778 30.3354C24.6778 29.7287 25.5411 29.1454 26.5678 28.5854C27.6645 28.0021 28.5745 27.5121 29.2978 27.1154C30.0445 26.7187 30.6395 26.3687 31.0828 26.0654C31.5261 25.7621 31.8411 25.4821 32.0278 25.2254C32.2145 24.9687 32.3078 24.6771 32.3078 24.3504C32.3078 23.6971 32.0628 23.1721 31.5728 22.7754C31.1061 22.3787 30.4411 22.1804 29.5778 22.1804C28.5978 22.1804 27.7461 22.4254 27.0228 22.9154C26.2995 23.3821 25.5995 24.0004 24.9228 24.7704L21.3878 20.6404C21.7611 20.2204 22.2511 19.8121 22.8578 19.4154C23.4878 19.0187 24.1995 18.6687 24.9928 18.3654C25.7861 18.0387 26.6495 17.7821 27.5828 17.5954C28.5395 17.4087 29.5311 17.3154 30.5578 17.3154C33.0778 17.3154 35.0145 17.8637 36.3678 18.9604C37.7211 20.0571 38.3978 21.5387 38.3978 23.4054C38.3978 24.1754 38.2695 24.8637 38.0128 25.4704C37.7795 26.0771 37.4645 26.6254 37.0678 27.1154C36.6711 27.5821 36.2161 28.0021 35.7028 28.3754C35.2128 28.7254 34.7111 29.0521 34.1978 29.3554C33.8478 29.5654 33.4628 29.7871 33.0428 30.0204C32.6461 30.2537 32.2495 30.5104 31.8528 30.7904C31.4561 31.0471 31.0828 31.3271 30.7328 31.6304C30.3828 31.9337 30.0795 32.2604 29.8228 32.6104H38.7828V37.6504H21.1778Z" fill="#556170"/>
</svg>
