<svg width="57" height="57" viewBox="0 0 57 57" fill="none" xmlns="http://www.w3.org/2000/svg">
<circle cx="28.5" cy="28.5" r="28.5" fill="#C9DC00"/>
<path d="M37.1728 32.6104V37.6504H22.0528V32.6104H27.0228V23.6854C26.8128 23.9654 26.4745 24.2571 26.0078 24.5604C25.5645 24.8404 25.0745 25.1087 24.5378 25.3654C24.0011 25.5987 23.4411 25.7971 22.8578 25.9604C22.2978 26.1004 21.7961 26.1704 21.3528 26.1704V20.9904C21.7261 20.9904 22.2045 20.8621 22.7878 20.6054C23.3945 20.3487 23.9895 20.0454 24.5728 19.6954C25.1561 19.3221 25.6811 18.9487 26.1478 18.5754C26.6145 18.2021 26.9061 17.8987 27.0228 17.6654H32.7278V32.6104H37.1728Z" fill="#556170"/>
</svg>
