<svg width="57" height="57" viewBox="0 0 57 57" fill="none" xmlns="http://www.w3.org/2000/svg">
<circle cx="28.5" cy="28.5" r="28.5" fill="#C9DC00"/>
<path d="M33.6728 26.3554C34.3961 26.4954 35.0495 26.7521 35.6328 27.1254C36.2395 27.4754 36.7528 27.9304 37.1728 28.4904C37.6161 29.0271 37.9545 29.6571 38.1878 30.3804C38.4211 31.0804 38.5378 31.8387 38.5378 32.6554C38.5378 33.7521 38.3161 34.7321 37.8728 35.5954C37.4295 36.4821 36.7878 37.2287 35.9478 37.8354C35.1311 38.4654 34.1395 38.9437 32.9728 39.2704C31.8061 39.6204 30.4995 39.7954 29.0528 39.7954C25.5295 39.7954 22.7645 38.7571 20.7578 36.6804L23.7678 32.6904C24.3745 33.3437 25.0861 33.8454 25.9028 34.1954C26.7195 34.5221 27.6878 34.6854 28.8078 34.6854C31.4211 34.6854 32.7278 33.7171 32.7278 31.7804C32.7278 30.7304 32.3311 29.9371 31.5378 29.4004C30.7678 28.8637 29.5428 28.5954 27.8628 28.5954H26.8478V24.5704H28.0028C29.2861 24.5704 30.2895 24.3021 31.0128 23.7654C31.7595 23.2287 32.1328 22.5171 32.1328 21.6304C32.1328 20.8604 31.8645 20.2771 31.3278 19.8804C30.7911 19.4837 30.0795 19.2854 29.1928 19.2854C28.2361 19.2854 27.3611 19.5187 26.5678 19.9854C25.7978 20.4287 25.1445 21.0704 24.6078 21.9104L21.0728 17.8504C21.4461 17.3604 21.9361 16.9054 22.5428 16.4854C23.1728 16.0654 23.8728 15.7154 24.6428 15.4354C25.4128 15.1321 26.2411 14.8987 27.1278 14.7354C28.0145 14.5721 28.9128 14.4904 29.8228 14.4904C31.0595 14.4904 32.1911 14.6421 33.2178 14.9454C34.2445 15.2254 35.1195 15.6454 35.8428 16.2054C36.5895 16.7421 37.1611 17.3954 37.5578 18.1654C37.9545 18.9121 38.1528 19.7521 38.1528 20.6854C38.1528 21.3854 38.0361 22.0504 37.8028 22.6804C37.5928 23.3104 37.2895 23.8821 36.8928 24.3954C36.4961 24.9087 36.0178 25.3404 35.4578 25.6904C34.9211 26.0171 34.3261 26.2387 33.6728 26.3554Z" fill="#556170"/>
</svg>
