<svg width="38" height="36" viewBox="0 0 38 36" fill="none" xmlns="http://www.w3.org/2000/svg">
<path d="M38 20.0143C38 19.5 37.6998 19.0714 37.2709 18.8571L29.1648 15.1286V5.4C29.1648 4.88571 28.8646 4.45714 28.4357 4.24286L19.5576 0.128571C19.2144 -0.0428571 18.8284 -0.0428571 18.4853 0.128571L9.56433 4.24286C9.09255 4.45714 8.83521 4.92857 8.83521 5.4V15.0857L0.72912 18.8571C0.257336 19.0714 0 19.5429 0 20.0143V30.6C0 31.1143 0.300226 31.5429 0.72912 31.7571L9.60722 35.8714C9.77878 35.9571 9.95034 36 10.1648 36C10.3363 36 10.5508 35.9571 10.7223 35.8714L19 32.0571L27.2777 35.8714C27.4492 35.9571 27.6208 36 27.8352 36C28.0068 36 28.2212 35.9571 28.3928 35.8714L37.2709 31.7571C37.7427 31.5429 38 31.0714 38 30.6V20.0143ZM11.4515 24.9L17.7133 22.0714V29.8286L11.4515 32.7V24.9ZM20.2867 10.2857L26.5914 7.41429V15.1714L20.2867 18.0857V10.2857ZM27.8352 22.6714L22.1309 20.0571L27.9639 17.3571L33.6682 20.0143L27.8352 22.6714ZM19 2.7L24.7901 5.4L19 8.05714L13.2099 5.4L19 2.7ZM10.0361 17.3571L15.8691 20.0571L10.1648 22.6714L4.37472 20.0143L10.0361 17.3571ZM29.1219 32.7V24.9L35.4266 22.0286V29.7857L29.1219 32.7Z" fill="#C9DC00"/>
</svg>
