<svg width="34" height="36" viewBox="0 0 34 36" fill="none" xmlns="http://www.w3.org/2000/svg">
<path d="M30.2261 36H3.7739C2.77333 35.9989 1.81405 35.6032 1.10654 34.8998C0.399026 34.1963 0.00107524 33.2425 0 32.2477V3.75232C0.00106557 2.75748 0.399013 1.80368 1.10652 1.10022C1.81403 0.396751 2.77332 0.00107232 3.7739 0H30.2261C31.2267 0.00107232 32.186 0.396751 32.8935 1.10022C33.601 1.80368 33.9989 2.75748 34 3.75232V32.2477C33.9989 33.2425 33.601 34.1963 32.8935 34.8998C32.186 35.6032 31.2267 35.9989 30.2261 36ZM3.7739 2.42574C3.42018 2.42618 3.08108 2.56609 2.83097 2.81478C2.58085 3.06346 2.44015 3.40063 2.43972 3.75232V32.2477C2.44005 32.5994 2.58073 32.9367 2.83087 33.1854C3.08102 33.4341 3.42019 33.574 3.77395 33.5743H30.2261C30.5798 33.5739 30.919 33.4341 31.1691 33.1854C31.4193 32.9366 31.5599 32.5994 31.5603 32.2477V3.75232C31.5598 3.40062 31.4191 3.06345 31.169 2.81476C30.9189 2.56607 30.5798 2.42617 30.226 2.42574H3.7739ZM19.6154 31.5169H14.3911C14.2309 31.5169 14.0723 31.4856 13.9242 31.4246C13.7762 31.3637 13.6417 31.2744 13.5285 31.1617C13.4152 31.0491 13.3253 30.9154 13.264 30.7682C13.2027 30.621 13.1712 30.4633 13.1713 30.304V25.109C13.1712 24.9497 13.2027 24.792 13.264 24.6448C13.3253 24.4977 13.4152 24.3639 13.5285 24.2513C13.6417 24.1387 13.7762 24.0493 13.9242 23.9884C14.0723 23.9275 14.2309 23.8961 14.3911 23.8962H19.6154C19.7756 23.8961 19.9342 23.9275 20.0823 23.9884C20.2303 24.0493 20.3648 24.1387 20.4781 24.2513C20.5913 24.3639 20.6812 24.4977 20.7425 24.6448C20.8038 24.792 20.8353 24.9497 20.8352 25.109V30.304C20.8353 30.4633 20.8038 30.621 20.7425 30.7682C20.6812 30.9154 20.5913 31.0491 20.4781 31.1617C20.3648 31.2744 20.2303 31.3637 20.0823 31.4246C19.9342 31.4856 19.7756 31.5169 19.6154 31.5169ZM15.6109 29.0911H18.3955V26.3219H15.611L15.6109 29.0911ZM10.6588 31.5169H5.43449C5.27428 31.5169 5.11563 31.4856 4.96762 31.4246C4.8196 31.3637 4.6851 31.2744 4.57182 31.1617C4.45854 31.0491 4.36868 30.9154 4.30739 30.7682C4.24611 30.621 4.21458 30.4633 4.21462 30.304V25.109C4.21458 24.9497 4.24611 24.792 4.30739 24.6448C4.36868 24.4977 4.45854 24.3639 4.57182 24.2513C4.6851 24.1387 4.8196 24.0493 4.96762 23.9884C5.11563 23.9275 5.27428 23.8961 5.43449 23.8962H10.6588C10.819 23.8961 10.9777 23.9275 11.1257 23.9884C11.2737 24.0493 11.4082 24.1387 11.5215 24.2513C11.6348 24.3639 11.7246 24.4977 11.7859 24.6448C11.8472 24.792 11.8787 24.9497 11.8787 25.109V30.304C11.8787 30.4633 11.8472 30.621 11.7859 30.7682C11.7246 30.9154 11.6348 31.0491 11.5215 31.1617C11.4082 31.2743 11.2737 31.3637 11.1257 31.4246C10.9777 31.4856 10.819 31.5169 10.6588 31.5169ZM6.65435 29.0911H9.439V26.3219H6.65435V29.0911ZM28.5654 31.5157H23.3423C23.1821 31.5157 23.0235 31.4844 22.8755 31.4234C22.7274 31.3625 22.5929 31.2732 22.4797 31.1605C22.3664 31.0479 22.2765 30.9142 22.2152 30.767C22.1539 30.6198 22.1224 30.4621 22.1225 30.3028V16.1985C22.1225 15.8768 22.251 15.5683 22.4798 15.3408C22.7085 15.1134 23.0188 14.9856 23.3423 14.9856H28.5655C28.889 14.9856 29.1993 15.1134 29.4281 15.3408C29.6568 15.5683 29.7854 15.8768 29.7854 16.1985V30.3028C29.7854 30.4621 29.7539 30.6198 29.6926 30.767C29.6313 30.9142 29.5415 31.0479 29.4282 31.1605C29.3149 31.2732 29.1804 31.3625 29.0324 31.4234C28.8844 31.4844 28.7256 31.5157 28.5654 31.5157ZM24.5621 29.0899H27.3457V17.4113H24.5622L24.5621 29.0899ZM19.6154 22.611H14.3911C14.2309 22.6111 14.0723 22.5797 13.9242 22.5188C13.7762 22.4579 13.6417 22.3685 13.5284 22.2559C13.4152 22.1433 13.3253 22.0095 13.264 21.8624C13.2027 21.7152 13.1712 21.5574 13.1713 21.3982V16.2044C13.1713 15.8827 13.2998 15.5742 13.5285 15.3468C13.7573 15.1193 14.0676 14.9915 14.3911 14.9915H19.6154C19.9389 14.9915 20.2492 15.1193 20.478 15.3468C20.7067 15.5742 20.8352 15.8827 20.8352 16.2044V21.3982C20.8353 21.5574 20.8038 21.7152 20.7425 21.8624C20.6812 22.0095 20.5913 22.1433 20.4781 22.2559C20.3648 22.3685 20.2303 22.4579 20.0823 22.5188C19.9342 22.5797 19.7756 22.6111 19.6154 22.611ZM15.6109 20.1853H18.3955V17.4173H15.611L15.6109 20.1853ZM10.6588 22.611H5.43449C5.27428 22.6111 5.11563 22.5797 4.96762 22.5188C4.8196 22.4579 4.6851 22.3685 4.57182 22.2559C4.45854 22.1432 4.36868 22.0095 4.30739 21.8624C4.24611 21.7152 4.21458 21.5574 4.21462 21.3982V16.2044C4.21464 15.8827 4.34317 15.5742 4.57193 15.3468C4.8007 15.1193 5.11096 14.9915 5.43449 14.9915H10.6588C10.9823 14.9915 11.2926 15.1193 11.5214 15.3468C11.7501 15.5742 11.8787 15.8827 11.8787 16.2044V21.3982C11.8787 21.5574 11.8472 21.7152 11.7859 21.8623C11.7246 22.0095 11.6348 22.1432 11.5215 22.2559C11.4082 22.3685 11.2737 22.4578 11.1257 22.5188C10.9777 22.5797 10.819 22.6111 10.6588 22.611ZM6.65435 20.1853H9.439V17.4173H6.65435V20.1853ZM28.5655 13.0201H5.43449C5.11096 13.02 4.8007 12.8923 4.57193 12.6648C4.34317 12.4373 4.21464 12.1289 4.21462 11.8072V5.69658C4.21464 5.37491 4.34317 5.06642 4.57193 4.83897C4.8007 4.61152 5.11096 4.48372 5.43449 4.48371H28.5655C28.889 4.48372 29.1993 4.61152 29.4281 4.83897C29.6568 5.06642 29.7854 5.37491 29.7854 5.69658V11.8072C29.7854 12.1289 29.6568 12.4373 29.4281 12.6648C29.1993 12.8923 28.889 13.02 28.5655 13.0201ZM6.65435 10.5943H27.3457V6.90945H6.65435V10.5943Z" fill="#C9DC00"/>
</svg>
