<svg width="35" height="36" viewBox="0 0 35 36" fill="none" xmlns="http://www.w3.org/2000/svg">
<path d="M29.0755 0.238478C28.8477 0.0569477 28.5742 -0.0338176 28.3008 0.011565C28.1641 0.011565 28.0273 0.0115648 27.8906 0.0569474H9.16016C4.10156 0.0569474 0 4.14139 0 9.17886V34.9108C0 35.5008 0.501302 36 1.09375 36H22.7409C23.3333 36 23.8346 35.5008 23.8346 34.9108V11.9472H33.9062C34.4987 11.9472 35 11.448 35 10.858V8.8158C35 4.95827 32.6758 1.59996 29.0755 0.238478ZM21.6471 33.867H2.1875V9.17886C2.1875 5.36672 5.33203 2.23531 9.16016 2.23531H24.3815C22.6497 3.91447 21.6471 6.22899 21.6471 8.77041V33.867ZM23.8346 9.72345V8.77041C23.8346 5.86593 25.612 3.27912 28.3464 2.2807C31.0352 3.27912 32.8581 5.86593 32.8581 8.77041V9.72345H23.8346Z" fill="#C9DC00"/>
<path d="M15.1758 23.3383C15.1302 23.3383 15.0846 23.3383 15.0846 23.3383H14.4466C13.8542 23.3383 13.3984 22.8845 13.3984 22.2945C13.3984 22.0222 13.4896 21.7499 13.7174 21.5684C13.8997 21.3868 14.1732 21.2507 14.4466 21.2507H16.5885C17.181 21.2507 17.6823 20.7515 17.6823 20.1615C17.6823 19.5715 17.181 19.0723 16.5885 19.0723H15.9961V17.7562C15.9961 17.1663 15.4948 16.667 14.9023 16.667C14.3099 16.667 13.8086 17.1663 13.8086 17.7562V19.1631C13.1706 19.2992 12.5781 19.5715 12.1224 20.0707C11.5299 20.7061 11.1654 21.4776 11.1654 22.3399C11.1654 24.1098 12.5781 25.5167 14.3099 25.562C14.3555 25.562 14.401 25.562 14.401 25.562H15.0391C15.6315 25.562 16.0872 26.0159 16.0872 26.6058C16.0872 26.8781 15.9961 27.1504 15.7682 27.332C15.5859 27.5135 15.3125 27.6496 15.0391 27.6496C14.9935 27.6496 14.9479 27.6496 14.8568 27.6496C14.8112 27.6496 14.7656 27.6496 14.6745 27.6496H12.8516C12.2591 27.6496 11.7578 28.1488 11.7578 28.7388C11.7578 29.3288 12.2591 29.828 12.8516 29.828H13.763V31.1441C13.763 31.7341 14.2643 32.2333 14.8568 32.2333C15.4492 32.2333 15.9505 31.7341 15.9505 31.1441V29.6919C16.4518 29.5557 16.9076 29.2834 17.3177 28.875C17.9102 28.2396 18.2747 27.4681 18.2747 26.6058C18.3203 24.8359 16.9076 23.3837 15.1758 23.3383Z" fill="#C9DC00"/>
<path d="M5.28699 9.54197H15.2219C15.8143 9.54197 16.3156 9.04276 16.3156 8.45278C16.3156 7.86281 15.8143 7.3636 15.2219 7.3636H5.28699C4.69455 7.3636 4.19324 7.86281 4.19324 8.45278C4.19324 9.08814 4.69455 9.54197 5.28699 9.54197Z" fill="#C9DC00"/>
<path d="M5.28699 13.3995H15.2219C15.8143 13.3995 16.3156 12.9003 16.3156 12.3103C16.3156 11.7203 15.8143 11.2211 15.2219 11.2211H5.28699C4.69455 11.2211 4.19324 11.7203 4.19324 12.3103C4.19324 12.9003 4.69455 13.3995 5.28699 13.3995Z" fill="#C9DC00"/>
<path d="M6.60843 16.304H5.33239C4.73994 16.304 4.23864 16.8032 4.23864 17.3931V18.6639C4.23864 19.2538 4.73994 19.753 5.33239 19.753H6.60843C7.20088 19.753 7.70218 19.2538 7.70218 18.6639V17.3931C7.70218 16.8032 7.20088 16.304 6.60843 16.304Z" fill="#C9DC00"/>
<path d="M6.60843 21.7953H5.33239C4.73994 21.7953 4.23864 22.2945 4.23864 22.8845V24.1552C4.23864 24.7452 4.73994 25.2444 5.33239 25.2444H6.60843C7.20088 25.2444 7.70218 24.7452 7.70218 24.1552V22.8845C7.70218 22.2945 7.20088 21.7953 6.60843 21.7953Z" fill="#C9DC00"/>
<path d="M6.60843 27.2865H5.33239C4.73994 27.2865 4.23864 27.7857 4.23864 28.3757V29.6464C4.23864 30.2364 4.73994 30.7356 5.33239 30.7356H6.60843C7.20088 30.7356 7.70218 30.2364 7.70218 29.6464V28.3757C7.70218 27.7857 7.20088 27.2865 6.60843 27.2865Z" fill="#C9DC00"/>
</svg>
