<svg width="40" height="40" viewBox="0 0 40 40" fill="none" xmlns="http://www.w3.org/2000/svg">
<circle cx="20" cy="20" r="19.5" fill="white" stroke="#556170"/>
<path d="M19.7759 13.262C20.8025 13.262 21.6532 13.438 22.3279 13.79C23.0172 14.142 23.5305 14.6113 23.8679 15.198C24.2199 15.77 24.3959 16.4007 24.3959 17.09C24.3959 17.53 24.3079 17.948 24.1319 18.344C23.9559 18.74 23.7359 19.0847 23.4719 19.378C23.2079 19.6567 22.9219 19.862 22.6139 19.994C22.8925 20.0527 23.1859 20.236 23.4939 20.544C23.8165 20.8373 24.0879 21.226 24.3079 21.71C24.5425 22.1793 24.6599 22.722 24.6599 23.338C24.6599 24.1447 24.4472 24.878 24.0219 25.538C23.5965 26.198 22.9952 26.7187 22.2179 27.1C21.4405 27.4813 20.5239 27.672 19.4679 27.672C18.6612 27.672 17.8252 27.5253 16.9599 27.232C16.1092 26.9533 15.3465 26.638 14.6719 26.286L16.1239 24.372C16.7105 24.724 17.2605 24.9807 17.7739 25.142C18.2872 25.2887 18.8665 25.362 19.5119 25.362C19.9519 25.362 20.3625 25.2887 20.7439 25.142C21.1252 24.9807 21.4332 24.746 21.6679 24.438C21.9172 24.13 22.0419 23.7707 22.0419 23.36C22.0419 22.6853 21.7779 22.15 21.2499 21.754C20.7365 21.358 19.9005 21.16 18.7419 21.16H17.8179L17.4219 18.938H18.8739C19.7685 18.938 20.4725 18.7767 20.9859 18.454C21.5139 18.1167 21.7779 17.6767 21.7779 17.134C21.7779 16.8407 21.6899 16.5767 21.5139 16.342C21.3525 16.0927 21.1179 15.902 20.8099 15.77C20.5019 15.638 20.1352 15.572 19.7099 15.572C19.0499 15.572 18.4339 15.6967 17.8619 15.946C17.3045 16.1953 16.8279 16.452 16.4319 16.716L15.0899 14.802C15.8085 14.3327 16.5492 13.9587 17.3119 13.68C18.0745 13.4013 18.8959 13.262 19.7759 13.262Z" fill="#556170"/>
</svg>
