<svg width="37" height="36" viewBox="0 0 37 36" fill="none" xmlns="http://www.w3.org/2000/svg">
<path d="M25.8561 13.6197C26.1444 13.2549 26.0855 12.7279 25.715 12.4384C25.3973 12.1894 24.9444 12.2009 24.6326 12.4615L9.33901 25.2708L1.2628 22.1959C0.251068 21.8137 -0.254798 20.6961 0.127542 19.7001C0.298125 19.2658 0.615762 18.9067 1.0334 18.6867L34.5617 0.196568C35.3676 -0.231953 36.3676 0.0633792 36.8028 0.856722C36.9558 1.14047 37.0264 1.46476 36.9911 1.78325L34.05 31.965C33.9441 33.0653 32.9559 33.8702 31.8383 33.766C31.6442 33.7486 31.4501 33.7023 31.2736 33.6328L21.4445 29.8861L15.2741 35.5785C14.633 36.1692 13.6212 36.1344 13.0212 35.5032C12.7448 35.2079 12.5918 34.8199 12.5918 34.4203V29.9498L25.8561 13.6197Z" fill="#C9DC00"/>
</svg>
